# xmcd
#
# Track frame offsets:
#	150
#	10476
#	23570
#	33791
#	44077
#	53831
#	66273
#	75150
#	86722
#	99461
#	113482
#	125143
#	138153
#	148448
#	160087
#
# Disc length: 2346 seconds
#
# Revision: 0
# Processed by: cddbd v1.5.2PL0 Copyright (c) Steve Scherf et al.
# Submitted via: dBpowerAMP V4.0
#
DISCID=c409280f
DTITLE=Various Artist - Country Gold CD2
DYEAR=2008
DGENRE=Country
TTITLE0=Faron Young - Hello Walls
TTITLE1=Bobby Bare - Detroit City
TTITLE2=Ferlin Husky - The Wings Of A Dove
TTITLE3=Don Gibson - Lonesome Number One
TTITLE4=Mickey Gilley - Fraulein
TTITLE5=Johnny Cash - I Still Miss Someone (Live)
TTITLE6=Burl Ives - Little Bitty Tear
TTITLE7=George Jones - White Lightnin'
TTITLE8=Bill Anderson - Still
TTITLE9=Roger Miller - My Elusive Dreams
TTITLE10=Merle Haggard - Okie From Muskogee
TTITLE11=Johnny Cash - I Walk The Line (Live)
TTITLE12=Cindy Morgan - I'm Beginning To Forget You
TTITLE13=Tina Travis - Too Many Rivers
TTITLE14=Willie Nelson - Always On My Mind (Live)
EXTD=from Payless Entertainment, 2008, 2 CD set
EXTT0=
EXTT1=
EXTT2=
EXTT3=
EXTT4=
EXTT5=
EXTT6=
EXTT7=
EXTT8=
EXTT9=
EXTT10=
EXTT11=
EXTT12=
EXTT13=
EXTT14=
PLAYORDER=
